<?xml version="1.0" encoding="utf-8"?>
<!-- Generator: Adobe Adobe Illustrator 24.2.0, SVG Export Plug-In . SVG Version: 6.00 Build 0)  -->
<svg version="1.1" id="Layer_1" xmlns="http://www.w3.org/2000/svg" xmlns:xlink="http://www.w3.org/1999/xlink" x="0px" y="0px"
	 viewBox="0 0 1000 1000" style="enable-background:new 0 0 1000 1000;" xml:space="preserve">
<style type="text/css">
	.st0{fill:none;stroke:#000000;stroke-width:27;stroke-linecap:round;stroke-linejoin:round;stroke-miterlimit:10;}
</style>
<path class="st0" d="M600,475l50-50c0,0,105.79,62.81,175,0c86.55-78.55,101.68-160.02,100-200c-0.59-13.96-15.12-9.88-25,0
	c-19.02,19.02-125,125-125,125l-50-50l125-125l-25-25L700,275l-50-50c0,0,100.35-100.35,125-125c22.51-22.51,0-25,0-25
	s-58.15,8.15-75,25"/>
<path class="st0" d="M275,100c0,0-99.55-25.45-150,25c-61.31,61.31-52.2,172.8,25,250c156.82,156.82,250,75,250,75
	s235.11,308.23,350,375c16.21,9.42,60.95,12.41,75,0s7.18-57.68,0-75c-50.74-122.49-375-350-375-350s107.49-166.36-100-275
	c-6.25-3.27-100,125-100,125"/>
<path class="st0" d="M400,525c0,0-182.73,152.31-225,225c-9.6,16.51-28.15,48.85-0.59,76.41c22.6,22.6,59.35,8.27,75.59-1.41
	c72.22-43.07,225-225,225-225"/>
<path class="st0" d="M551.66,427.14l47.27-50.18c0,0-119.54-131.75,30.89-242.3"/>
</svg>
